<svg version="1.1" preserveAspectRatio="none" xmlns="http://www.w3.org/2000/svg" width="500" height="500" viewBox="0 0 500 500"><rect width="100%" height="100%" fill="#0E0E0E" fill-opacity="1"/><svg viewBox="145.5075 215.4402 349.1226 60" width="333" height="57.22917966353368" x="83.5px" y="221.3854px" xmlns="http://www.w3.org/2000/svg" xmlns:xlink="http://www.w3.org/1999/xlink" preserveAspectRatio="none"><defs></defs><style>.background {fill:#0E0E0E;fill-opacity:1;}.icon3 {fill:#DFDFDF;fill-opacity:1;}.icon3-str {stroke:#DFDFDF;stroke-opacity:1;}.shapeStroke-str {stroke:#EBE7D9;stroke-opacity:1;}</style><g opacity="1" transform="rotate(0 145.5075 216.4402)">
<svg width="349.1226" height="58" x="145.5075" y="216.4402" version="1.1" preserveAspectRatio="none" viewBox="0 0 349.1226 58">
  <defs><rect x="0" y="0" width="349.1226" height="58" rx="0px" ry="0px" id="id-MGa_3CcrI1757966074200"></rect></defs><use class="icon3 shapeStroke-str" style="stroke-width:0;" xlink:href="#id-MGa_3CcrI1757966074200"></use>
</svg>
</g><g opacity="1" transform="rotate(0 145.5075 215.4402)">
<svg width="349.1226" height="60" x="145.5075" y="215.4402" version="1.1" preserveAspectRatio="none" viewBox="2.8 -28.56 169.44 29.12">
  <g transform="matrix(1 0 0 1 0 0)" class="background"><path id="id-D6z1nYkh6" d="M24.76-21.88L10.72-21.88L10.72-15.72L23.08-15.72L23.08-9.60L10.72-9.60L10.72 0L2.80 0L2.80-28L24.76-28L24.76-21.88Z M42.36 0.56Q37.92 0.56 34.38-1.32Q30.84-3.20 28.82-6.52Q26.80-9.84 26.80-14L26.80-14Q26.80-18.16 28.82-21.48Q30.84-24.80 34.38-26.68Q37.92-28.56 42.36-28.56L42.36-28.56Q46.80-28.56 50.34-26.68Q53.88-24.80 55.90-21.48Q57.92-18.16 57.92-14L57.92-14Q57.92-9.84 55.90-6.52Q53.88-3.20 50.34-1.32Q46.80 0.56 42.36 0.56L42.36 0.56ZM42.36-6Q44.48-6 46.20-7Q47.92-8 48.92-9.82Q49.92-11.64 49.92-14L49.92-14Q49.92-16.36 48.92-18.18Q47.92-20 46.20-21Q44.48-22 42.36-22L42.36-22Q40.24-22 38.52-21Q36.80-20 35.80-18.18Q34.80-16.36 34.80-14L34.80-14Q34.80-11.64 35.80-9.82Q36.80-8 38.52-7Q40.24-6 42.36-6L42.36-6Z M62.08 0L62.08-28L70-28L70-6.28L83.36-6.28L83.36 0L62.08 0Z M105.36-28L113.12-28L113.12 0L106.60 0L94.24-14.92L94.24 0L86.48 0L86.48-28L93-28L105.36-13.08L105.36-28Z M126.56-6.12L141.20-6.12L141.20 0L118.72 0L118.72-28L140.68-28L140.68-21.88L126.56-21.88L126.56-17.16L139.00-17.16L139.00-11.24L126.56-11.24L126.56-6.12Z M167.12-14.60Q169.52-13.76 170.88-11.98Q172.24-10.20 172.24-7.68L172.24-7.68Q172.24-4 169.28-2Q166.32 0 160.72 0L160.72 0L145.60 0L145.60-28L159.92-28Q165.28-28 168.08-26.02Q170.88-24.04 170.88-20.68L170.88-20.68Q170.88-18.68 169.90-17.10Q168.92-15.52 167.12-14.60L167.12-14.60ZM158.88-22.28L153.44-22.28L153.44-16.88L158.88-16.88Q162.88-16.88 162.88-19.60L162.88-19.60Q162.88-22.28 158.88-22.28L158.88-22.28ZM160.08-5.72Q164.24-5.72 164.24-8.56L164.24-8.56Q164.24-11.40 160.08-11.40L160.08-11.40L153.44-11.40L153.44-5.72L160.08-5.72Z"/></g>
</svg>
</g></svg></svg>